<svg width="32" height="32" viewBox="0 0 32 32" fill="none" xmlns="http://www.w3.org/2000/svg">
<path d="M12.6665 5.33332C10.0143 5.33332 7.4708 6.38689 5.59544 8.26225C3.72007 10.1376 2.6665 12.6812 2.6665 15.3333C2.6665 17.9855 3.72007 20.529 5.59544 22.4044C7.4708 24.2797 10.0143 25.3333 12.6665 25.3333H22.6665C23.566 25.334 24.4564 25.1527 25.2839 24.8002C26.1115 24.4477 26.8592 23.9314 27.482 23.2824C28.1048 22.6334 28.5898 21.865 28.9078 21.0236C29.2258 20.1822 29.3702 19.2851 29.3324 18.3864C29.2946 17.4877 29.0753 16.6059 28.6878 15.7942C28.3002 14.9825 27.7524 14.2576 27.0772 13.6631C26.4021 13.0687 25.6137 12.617 24.7595 12.3353C23.9052 12.0536 23.0028 11.9477 22.1065 12.024C21.0345 12.114 20.0002 12.4621 19.0919 13.0387C18.1836 13.6152 17.4283 14.4029 16.8905 15.3347C16.7082 15.6301 16.4178 15.8429 16.0811 15.9276C15.7444 16.0123 15.3879 15.9623 15.0875 15.7883C14.7871 15.6143 14.5663 15.33 14.4723 14.9958C14.3782 14.6615 14.4182 14.3038 14.5838 13.9987C15.245 12.8547 16.1413 11.8639 17.2134 11.0917C18.2856 10.3194 19.5093 9.78332 20.8038 9.51865C19.8793 8.22294 18.6583 7.16704 17.2428 6.439C15.8273 5.71095 14.2583 5.33185 12.6665 5.33332Z" fill="#475467"/>
</svg>
