<svg xmlns="http://www.w3.org/2000/svg" width="32" height="32" viewBox="0 0 32 32" fill="none">
<path fill-rule="evenodd" clip-rule="evenodd" d="M22.6705 12C24.4386 12.0005 26.1341 12.7034 27.3839 13.9541C28.6338 15.2047 29.3357 16.9006 29.3351 18.6687C29.3346 20.4368 28.6317 22.1323 27.3811 23.3821C26.1305 24.632 24.4346 25.3339 22.6665 25.3333H12.6665C10.8322 25.3327 9.03347 24.8276 7.46703 23.8732C5.9006 22.9189 4.62682 21.5521 3.78507 19.9224C2.94332 18.2927 2.56603 16.4629 2.69447 14.6331C2.82291 12.8034 3.45214 11.0442 4.51331 9.54805C5.57448 8.05192 7.02671 6.87648 8.71111 6.15033C10.3955 5.42418 12.2472 5.17531 14.0635 5.43093C15.8799 5.68656 17.5909 6.43683 19.0095 7.59967C20.4281 8.76251 21.4995 10.2931 22.1065 12.024C22.2936 12.0082 22.4827 12.0002 22.6705 12ZM5.33313 15.3333C5.33122 13.6123 5.93467 11.9454 7.03786 10.6245C8.14105 9.30354 9.67369 8.41267 11.3675 8.10782C13.0613 7.80298 14.8084 8.10358 16.3029 8.957C17.7975 9.81043 18.9442 11.1623 19.5425 12.776C18.4373 13.3634 17.519 14.249 16.8918 15.332C16.7146 15.6383 16.6664 16.0023 16.7576 16.3441C16.8489 16.686 17.0722 16.9775 17.3785 17.1547C17.6847 17.3318 18.0488 17.3801 18.3906 17.2888C18.7324 17.1976 19.024 16.9743 19.2011 16.668C19.5531 16.0603 20.0584 15.5557 20.6665 15.2045C21.2746 14.8532 21.9642 14.6678 22.6665 14.6667C23.1918 14.6667 23.7119 14.7701 24.1972 14.9712C24.6825 15.1722 25.1235 15.4668 25.4949 15.8383C25.8663 16.2097 26.161 16.6506 26.362 17.1359C26.563 17.6212 26.6665 18.1414 26.6665 18.6667C26.6665 19.192 26.563 19.7121 26.362 20.1974C26.161 20.6827 25.8663 21.1237 25.4949 21.4951C25.1235 21.8665 24.6825 22.1612 24.1972 22.3622C23.7119 22.5632 23.1918 22.6667 22.6665 22.6667H12.6665C10.7215 22.6667 8.85628 21.8941 7.48102 20.5188C6.10575 19.1435 5.33313 17.2783 5.33313 15.3333Z" fill="#98A2B3"/>
</svg>