<svg width="32" height="32" viewBox="0 0 32 32" fill="none" xmlns="http://www.w3.org/2000/svg">
<path fill-rule="evenodd" clip-rule="evenodd" d="M22.6705 12C24.4386 12.0005 26.1341 12.7034 27.3839 13.954C28.6338 15.2046 29.3357 16.9005 29.3351 18.6687C29.3346 20.4368 28.6317 22.1322 27.3811 23.3821C26.1305 24.632 24.4346 25.3338 22.6665 25.3333H12.6665C10.8322 25.3327 9.03347 24.8276 7.46703 23.8732C5.9006 22.9189 4.62682 21.5521 3.78507 19.9224C2.94332 18.2927 2.56603 16.4628 2.69447 14.6331C2.82291 12.8033 3.45214 11.0442 4.51331 9.54802C5.57448 8.05189 7.02671 6.87645 8.71111 6.1503C10.3955 5.42415 12.2472 5.17528 14.0635 5.4309C15.8799 5.68652 17.591 6.4368 19.0095 7.59964C20.4281 8.76248 21.4995 10.2931 22.1065 12.024C22.2936 12.0082 22.4827 12.0002 22.6705 12ZM5.33313 15.3333C5.33122 13.6123 5.93467 11.9454 7.03786 10.6245C8.14105 9.30351 9.67369 8.41264 11.3675 8.10779C13.0613 7.80295 14.8084 8.10355 16.3029 8.95697C17.7975 9.8104 18.9442 11.1623 19.5425 12.776C18.4373 13.3634 17.519 14.2489 16.8918 15.332C16.7146 15.6382 16.6664 16.0023 16.7576 16.3441C16.8489 16.6859 17.0722 16.9775 17.3785 17.1547C17.6847 17.3318 18.0488 17.3801 18.3906 17.2888C18.7324 17.1975 19.024 16.9742 19.2011 16.668C19.5531 16.0603 20.0584 15.5556 20.6665 15.2044C21.2746 14.8532 21.9642 14.6678 22.6665 14.6667C23.1918 14.6667 23.7119 14.7701 24.1972 14.9711C24.6825 15.1722 25.1235 15.4668 25.4949 15.8382C25.8663 16.2097 26.161 16.6506 26.362 17.1359C26.563 17.6212 26.6665 18.1414 26.6665 18.6667C26.6665 19.1919 26.563 19.7121 26.362 20.1974C26.161 20.6827 25.8663 21.1236 25.4949 21.4951C25.1235 21.8665 24.6825 22.1611 24.1972 22.3622C23.7119 22.5632 23.1918 22.6667 22.6665 22.6667H12.6665C10.7215 22.6667 8.85628 21.894 7.48102 20.5188C6.10575 19.1435 5.33313 17.2782 5.33313 15.3333Z" fill="#344054"/>
</svg>
