<svg width="28" height="28" viewBox="0 0 28 28" fill="none" xmlns="http://www.w3.org/2000/svg">
<path d="M13.9416 21C14.35 21 14.6951 20.859 14.9771 20.5771C15.259 20.2951 15.4 19.95 15.4 19.5417C15.4 19.1333 15.259 18.7882 14.9771 18.5063C14.6951 18.2243 14.35 18.0833 13.9416 18.0833C13.5333 18.0833 13.1882 18.2243 12.9062 18.5063C12.6243 18.7882 12.4833 19.1333 12.4833 19.5417C12.4833 19.95 12.6243 20.2951 12.9062 20.5771C13.1882 20.859 13.5333 21 13.9416 21ZM12.8916 16.5083H15.05C15.05 15.8667 15.1229 15.3611 15.2687 14.9917C15.4146 14.6222 15.8278 14.1167 16.5083 13.475C17.0139 12.9694 17.4125 12.4882 17.7041 12.0313C17.9958 11.5743 18.1416 11.025 18.1416 10.3833C18.1416 9.29445 17.743 8.45834 16.9458 7.875C16.1486 7.29167 15.2055 7 14.1166 7C13.0083 7 12.109 7.29167 11.4187 7.875C10.7285 8.45834 10.2472 9.15834 9.97498 9.975L11.9 10.7333C11.9972 10.3833 12.216 10.0042 12.5562 9.59584C12.8965 9.1875 13.4166 8.98334 14.1166 8.98334C14.7389 8.98334 15.2055 9.15347 15.5166 9.49375C15.8278 9.83403 15.9833 10.2083 15.9833 10.6167C15.9833 11.0056 15.8666 11.3701 15.6333 11.7104C15.4 12.0507 15.1083 12.3667 14.7583 12.6583C13.9028 13.4167 13.3778 13.9903 13.1833 14.3792C12.9889 14.7681 12.8916 15.4778 12.8916 16.5083ZM14 25.6667C12.3861 25.6667 10.8694 25.3604 9.44998 24.7479C8.03054 24.1354 6.79581 23.3042 5.74581 22.2542C4.69581 21.2042 3.86456 19.9694 3.25206 18.55C2.63956 17.1306 2.33331 15.6139 2.33331 14C2.33331 12.3861 2.63956 10.8694 3.25206 9.45C3.86456 8.03056 4.69581 6.79584 5.74581 5.74584C6.79581 4.69584 8.03054 3.86459 9.44998 3.25209C10.8694 2.63959 12.3861 2.33334 14 2.33334C15.6139 2.33334 17.1305 2.63959 18.55 3.25209C19.9694 3.86459 21.2041 4.69584 22.2541 5.74584C23.3041 6.79584 24.1354 8.03056 24.7479 9.45C25.3604 10.8694 25.6666 12.3861 25.6666 14C25.6666 15.6139 25.3604 17.1306 24.7479 18.55C24.1354 19.9694 23.3041 21.2042 22.2541 22.2542C21.2041 23.3042 19.9694 24.1354 18.55 24.7479C17.1305 25.3604 15.6139 25.6667 14 25.6667ZM14 23.3333C16.6055 23.3333 18.8125 22.4292 20.6208 20.6208C22.4291 18.8125 23.3333 16.6056 23.3333 14C23.3333 11.3944 22.4291 9.1875 20.6208 7.37917C18.8125 5.57084 16.6055 4.66667 14 4.66667C11.3944 4.66667 9.18748 5.57084 7.37915 7.37917C5.57081 9.1875 4.66665 11.3944 4.66665 14C4.66665 16.6056 5.57081 18.8125 7.37915 20.6208C9.18748 22.4292 11.3944 23.3333 14 23.3333Z" fill="#344054"/>
</svg>
