<svg width="151" height="83" viewBox="0 0 151 83" fill="none" xmlns="http://www.w3.org/2000/svg">
<path d="M127.815 67.0111C121.704 67.0111 116.993 65.097 113.533 61.3425C110.146 57.5144 108.453 52.1404 108.453 45.1467V26.0798C108.453 24.3866 109.042 23.0615 110.146 22.0309C111.251 21.0002 112.723 20.4849 114.49 20.4849H114.858C116.625 20.4849 118.097 21.0002 119.201 22.0309C120.379 23.0615 120.968 24.3866 120.968 26.0798V43.8952C120.968 48.165 121.631 51.257 122.956 53.171C124.281 55.0115 126.416 55.9685 129.213 55.9685C131.716 55.9685 133.778 55.2323 135.323 53.6863C136.943 52.0667 137.9 49.7846 138.195 46.6927V26.1535C138.195 24.4603 138.784 23.1352 139.888 22.1045C140.992 21.0739 142.464 20.5585 144.231 20.5585H144.599C146.366 20.5585 147.838 21.0739 148.943 22.1045C150.121 23.1352 150.71 24.4603 150.71 26.1535V60.9744C150.71 62.6676 150.121 63.9927 148.943 65.0234C147.838 65.9804 146.366 66.4957 144.599 66.4957H144.231C142.906 66.4957 141.728 66.2749 140.698 65.7596C139.667 65.1706 138.931 64.4344 138.563 63.551C135.544 65.7596 131.937 67.0111 127.815 67.0111Z" fill="#1570EF"/>
<path d="M102.785 21.9573C101.68 20.9267 100.208 20.4114 98.4413 20.4114H98.0732C96.6745 20.4114 95.4966 20.7058 94.3923 21.3684C93.3617 21.9573 92.6255 22.7671 92.2574 23.7977C88.871 21.2947 84.9693 20.0433 80.6259 20.0433C76.4297 20.0433 72.6752 21.0003 69.3625 22.988C66.0497 24.902 63.3995 27.5522 61.559 30.9386C59.645 34.325 58.688 38.1531 58.688 42.3493C58.688 46.6191 59.645 50.4472 61.559 53.8336C63.4731 57.22 66.0497 59.8702 69.3625 61.7843C72.6752 63.6983 76.4297 64.6553 80.6259 64.6553C84.8957 64.6553 88.7238 63.4775 92.0366 61.1217V62.7413C92.0366 65.9805 91.1532 68.2626 89.46 69.7349C87.6932 71.1337 85.2638 71.8698 82.0246 71.8698C79.6689 71.8698 77.6076 71.5018 75.9144 70.8392C74.1476 70.1766 72.3808 68.9988 70.5403 67.2319C69.4361 66.1277 68.111 65.6124 66.565 65.6124C64.7982 65.6124 63.3995 66.2749 62.2216 67.6736C61.1909 68.8515 60.6756 70.103 60.6756 71.5018C60.6756 73.1213 61.4118 74.5937 62.8105 75.9188C67.5956 80.5567 74.0003 82.9124 82.0982 82.9124C89.2391 82.9124 94.7604 80.9984 98.7358 77.0967C102.711 73.2686 104.699 67.9681 104.699 61.1217V25.9327C104.552 24.3131 103.963 22.9143 102.785 21.9573ZM88.9447 50.3736C87.0306 52.4349 84.5276 53.5391 81.5093 53.5391C78.491 53.5391 75.988 52.5085 74.074 50.3736C72.1599 48.3123 71.1293 45.5885 71.1293 42.4229C71.1293 39.1838 72.0863 36.4599 74.074 34.3986C75.988 32.2637 78.491 31.1595 81.5093 31.1595C84.5276 31.1595 87.0306 32.2637 88.9447 34.3986C90.9323 36.4599 91.963 39.1838 91.963 42.4229C91.963 45.6621 90.9323 48.3123 88.9447 50.3736Z" fill="#1570EF"/>
<path d="M59.3505 55.6004C57.142 51.6251 56.1113 47.2816 56.1113 42.3493C56.1113 37.4905 57.2156 33.0735 59.3505 29.1718C61.559 25.1965 64.5037 22.1782 68.3318 19.9696C69.5097 19.2335 70.8348 18.6445 72.0863 18.2028C70.4667 15.8471 67.9637 14.3747 64.6509 13.4913C64.5037 13.4913 64.4301 13.3441 64.4301 13.2705C63.9148 12.019 63.105 9.81044 62.3688 8.7798C61.1173 7.0866 59.8658 6.27681 57.7309 5.17255C55.596 4.21553 52.3569 4.14192 50.8845 4.51C50.222 4.65724 49.0441 4.1419 47.9398 3.55296C47.5717 3.33211 47.2037 3.84745 47.4981 4.14192C56.0377 13.1232 52.6513 29.5399 39.8419 32.779C31.8176 34.6195 23.3517 27.6258 24.6031 19.3071C24.6031 19.0862 24.4559 18.8654 24.2351 18.8654C21.2904 18.8654 18.3457 17.6875 16.8733 14.89C16.7261 14.5956 16.2108 14.6692 16.1372 15.0373C16.1372 15.1109 16.1372 15.1845 16.1372 15.2581C15.7691 18.3501 15.9899 21.8101 18.1984 23.945C18.861 24.6075 20.1125 24.4603 19.9653 25.4909C19.4499 26.6688 18.1248 25.5645 17.315 25.0492C15.7691 23.7241 15.1801 21.8101 14.812 19.8224C14.7384 19.5279 14.444 19.4543 14.2231 19.6015C9.80606 22.6199 3.91668 25.7854 0.971992 30.6441C0.971992 30.6441 0.971992 30.6441 0.971992 30.7178C-2.70887 38.374 4.80009 44.1897 11.2048 46.9136C11.2784 46.9872 11.352 46.9872 11.4256 47.1344C20.1125 67.0847 45.216 72.4588 61.2646 58.3242C60.4548 57.4408 59.8658 56.5574 59.3505 55.6004ZM10.9839 34.9139C8.55457 34.9139 8.55457 31.1594 10.9839 31.1594C13.4133 31.0858 13.4133 34.9139 10.9839 34.9139Z" fill="#1570EF"/>
<path d="M31.744 11.7245C31.8176 11.7981 31.9648 11.8717 32.0384 11.8717C34.1733 11.7981 36.3818 12.6079 38.0014 14.0802C38.1487 14.2275 38.4431 14.2275 38.5904 14.0066C39.1793 13.2704 39.7682 12.6079 40.3572 12.1662C42.4921 10.0313 46.9091 10.1785 49.4121 11.43C49.7066 11.5772 50.0747 11.2828 49.9274 10.9883C47.5717 4.5836 40.9461 -0.348752 34.0261 0.0193345C33.9525 0.0193345 33.8789 0.019339 33.8052 0.0929563C30.6397 2.37509 29.7563 8.77979 31.744 11.7245Z" fill="#1570EF"/>
<path d="M41.3143 13.1968C40.799 13.6385 40.1364 14.3011 39.6211 15.0373C39.5475 15.1109 39.5475 15.1845 39.5475 15.2581C39.5475 16.0679 40.0628 17.2458 40.2101 17.982C40.2101 18.6445 39.0322 18.8654 38.8849 18.2764C38.0015 14.3747 33.1428 12.019 29.6092 14.0066C22.9836 18.0556 26.1492 28.6565 32.9219 30.7914C42.9339 34.9139 52.4305 23.7241 50.6637 14.0066C50.6637 13.8594 50.5901 13.7858 50.4429 13.7122C50.2956 13.6385 50.0748 13.4913 49.9275 13.4177C48.0135 11.7981 43.5228 11.0619 41.3143 13.1968Z" fill="#1570EF"/>
<path d="M25.0449 17.4666C25.8547 15.0373 27.5479 13.1232 29.9036 12.2398C30.1245 12.1662 30.1981 11.9453 30.1245 11.7245C28.5785 8.70616 29.0202 3.92105 31.0815 0.902736C31.3024 0.608267 31.0079 0.240167 30.7134 0.313784C25.1921 1.49166 19.8181 4.87805 17.6095 10.1785V10.2521C16.6525 15.2581 20.9959 17.8347 25.0449 17.4666Z" fill="#1570EF"/>
</svg>
