<svg width="32" height="32" viewBox="0 0 32 32" fill="none" xmlns="http://www.w3.org/2000/svg">
<g clip-path="url(#clip0_113_2054)">
<path fill-rule="evenodd" clip-rule="evenodd" d="M15.9998 2.66669C23.3638 2.66669 29.3332 8.63602 29.3332 16C29.3332 23.364 23.3638 29.3334 15.9998 29.3334C8.63584 29.3334 2.6665 23.364 2.6665 16C2.6665 8.63602 8.63584 2.66669 15.9998 2.66669ZM15.9998 5.33335C13.1709 5.33335 10.4578 6.45716 8.45737 8.45755C6.45698 10.4579 5.33317 13.171 5.33317 16C5.33317 18.829 6.45698 21.5421 8.45737 23.5425C10.4578 25.5429 13.1709 26.6667 15.9998 26.6667C18.8288 26.6667 21.5419 25.5429 23.5423 23.5425C25.5427 21.5421 26.6665 18.829 26.6665 16C26.6665 13.171 25.5427 10.4579 23.5423 8.45755C21.5419 6.45716 18.8288 5.33335 15.9998 5.33335ZM17.3332 16C17.6868 16 18.0259 16.1405 18.276 16.3905C18.526 16.6406 18.6665 16.9797 18.6665 17.3334C18.6665 17.687 18.526 18.0261 18.276 18.2762C18.0259 18.5262 17.6868 18.6667 17.3332 18.6667H14.6665C14.3129 18.6667 13.9737 18.5262 13.7237 18.2762C13.4736 18.0261 13.3332 17.687 13.3332 17.3334C13.3332 16.9797 13.4736 16.6406 13.7237 16.3905C13.9737 16.1405 14.3129 16 14.6665 16H17.3332ZM11.3332 9.33335C11.8636 9.33335 12.3723 9.54407 12.7474 9.91914C13.1225 10.2942 13.3332 10.8029 13.3332 11.3334C13.3332 11.8638 13.1225 12.3725 12.7474 12.7476C12.3723 13.1226 11.8636 13.3334 11.3332 13.3334C10.8027 13.3334 10.294 13.1226 9.91896 12.7476C9.54388 12.3725 9.33317 11.8638 9.33317 11.3334C9.33317 10.8029 9.54388 10.2942 9.91896 9.91914C10.294 9.54407 10.8027 9.33335 11.3332 9.33335ZM20.6665 9.33335C21.1969 9.33335 21.7056 9.54407 22.0807 9.91914C22.4558 10.2942 22.6665 10.8029 22.6665 11.3334C22.6665 11.8638 22.4558 12.3725 22.0807 12.7476C21.7056 13.1226 21.1969 13.3334 20.6665 13.3334C20.1361 13.3334 19.6274 13.1226 19.2523 12.7476C18.8772 12.3725 18.6665 11.8638 18.6665 11.3334C18.6665 10.8029 18.8772 10.2942 19.2523 9.91914C19.6274 9.54407 20.1361 9.33335 20.6665 9.33335Z" fill="#98A2B3"/>
</g>
<defs>
<clipPath id="clip0_113_2054">
<rect width="32" height="32" fill="white"/>
</clipPath>
</defs>
</svg>
