<svg width="28" height="28" viewBox="0 0 28 28" fill="none" xmlns="http://www.w3.org/2000/svg">
<path fill-rule="evenodd" clip-rule="evenodd" d="M13.9998 0.666687C21.3638 0.666687 27.3332 6.63602 27.3332 14C27.3332 21.364 21.3638 27.3334 13.9998 27.3334C6.63584 27.3334 0.666504 21.364 0.666504 14C0.666504 6.63602 6.63584 0.666687 13.9998 0.666687ZM13.9998 3.33335C11.1709 3.33335 8.45775 4.45716 6.45737 6.45755C4.45698 8.45794 3.33317 11.171 3.33317 14C3.33317 16.829 4.45698 19.5421 6.45737 21.5425C8.45775 23.5429 11.1709 24.6667 13.9998 24.6667C16.8288 24.6667 19.5419 23.5429 21.5423 21.5425C23.5427 19.5421 24.6665 16.829 24.6665 14C24.6665 11.171 23.5427 8.45794 21.5423 6.45755C19.5419 4.45716 16.8288 3.33335 13.9998 3.33335ZM15.3332 14C15.6868 14 16.0259 14.1405 16.276 14.3905C16.526 14.6406 16.6665 14.9797 16.6665 15.3334C16.6665 15.687 16.526 16.0261 16.276 16.2762C16.0259 16.5262 15.6868 16.6667 15.3332 16.6667H12.6665C12.3129 16.6667 11.9737 16.5262 11.7237 16.2762C11.4736 16.0261 11.3332 15.687 11.3332 15.3334C11.3332 14.9797 11.4736 14.6406 11.7237 14.3905C11.9737 14.1405 12.3129 14 12.6665 14H15.3332ZM9.33317 7.33335C9.8636 7.33335 10.3723 7.54407 10.7474 7.91914C11.1225 8.29421 11.3332 8.80292 11.3332 9.33335C11.3332 9.86379 11.1225 10.3725 10.7474 10.7476C10.3723 11.1226 9.8636 11.3334 9.33317 11.3334C8.80274 11.3334 8.29403 11.1226 7.91896 10.7476C7.54388 10.3725 7.33317 9.86379 7.33317 9.33335C7.33317 8.80292 7.54388 8.29421 7.91896 7.91914C8.29403 7.54407 8.80274 7.33335 9.33317 7.33335ZM18.6665 7.33335C19.1969 7.33335 19.7056 7.54407 20.0807 7.91914C20.4558 8.29421 20.6665 8.80292 20.6665 9.33335C20.6665 9.86379 20.4558 10.3725 20.0807 10.7476C19.7056 11.1226 19.1969 11.3334 18.6665 11.3334C18.1361 11.3334 17.6274 11.1226 17.2523 10.7476C16.8772 10.3725 16.6665 9.86379 16.6665 9.33335C16.6665 8.80292 16.8772 8.29421 17.2523 7.91914C17.6274 7.54407 18.1361 7.33335 18.6665 7.33335Z" fill="#98A2B3"/>
</svg>
