<svg width="28" height="28" viewBox="0 0 28 28" fill="none" xmlns="http://www.w3.org/2000/svg">
<path fill-rule="evenodd" clip-rule="evenodd" d="M13.9998 0.666656C21.3638 0.666656 27.3332 6.63599 27.3332 14C27.3332 21.364 21.3638 27.3333 13.9998 27.3333C6.63584 27.3333 0.666504 21.364 0.666504 14C0.666504 6.63599 6.63584 0.666656 13.9998 0.666656ZM15.3332 14H12.6665C12.3129 14 11.9737 14.1405 11.7237 14.3905C11.4736 14.6406 11.3332 14.9797 11.3332 15.3333C11.3332 15.6869 11.4736 16.0261 11.7237 16.2761C11.9737 16.5262 12.3129 16.6667 12.6665 16.6667H15.3332C15.6868 16.6667 16.0259 16.5262 16.276 16.2761C16.526 16.0261 16.6665 15.6869 16.6665 15.3333C16.6665 14.9797 16.526 14.6406 16.276 14.3905C16.0259 14.1405 15.6868 14 15.3332 14ZM9.33317 7.33332C8.80274 7.33332 8.29403 7.54404 7.91896 7.91911C7.54388 8.29418 7.33317 8.80289 7.33317 9.33332C7.33317 9.86376 7.54388 10.3725 7.91896 10.7475C8.29403 11.1226 8.80274 11.3333 9.33317 11.3333C9.8636 11.3333 10.3723 11.1226 10.7474 10.7475C11.1225 10.3725 11.3332 9.86376 11.3332 9.33332C11.3332 8.80289 11.1225 8.29418 10.7474 7.91911C10.3723 7.54404 9.8636 7.33332 9.33317 7.33332ZM18.6665 7.33332C18.1361 7.33332 17.6274 7.54404 17.2523 7.91911C16.8772 8.29418 16.6665 8.80289 16.6665 9.33332C16.6665 9.86376 16.8772 10.3725 17.2523 10.7475C17.6274 11.1226 18.1361 11.3333 18.6665 11.3333C19.1969 11.3333 19.7056 11.1226 20.0807 10.7475C20.4558 10.3725 20.6665 9.86376 20.6665 9.33332C20.6665 8.80289 20.4558 8.29418 20.0807 7.91911C19.7056 7.54404 19.1969 7.33332 18.6665 7.33332Z" fill="#475467"/>
</svg>
