<svg xmlns="http://www.w3.org/2000/svg" width="32" height="32" viewBox="0 0 32 32" fill="none">
<path fill-rule="evenodd" clip-rule="evenodd" d="M16.0001 2.66663C23.3641 2.66663 29.3334 8.63596 29.3334 16C29.3334 23.364 23.3641 29.3333 16.0001 29.3333C8.63608 29.3333 2.66675 23.364 2.66675 16C2.66675 8.63596 8.63608 2.66663 16.0001 2.66663ZM17.3334 16H14.6667C14.3131 16 13.974 16.1404 13.7239 16.3905C13.4739 16.6405 13.3334 16.9797 13.3334 17.3333C13.3334 17.6869 13.4739 18.0261 13.7239 18.2761C13.974 18.5262 14.3131 18.6666 14.6667 18.6666H17.3334C17.687 18.6666 18.0262 18.5262 18.2762 18.2761C18.5263 18.0261 18.6667 17.6869 18.6667 17.3333C18.6667 16.9797 18.5263 16.6405 18.2762 16.3905C18.0262 16.1404 17.687 16 17.3334 16ZM11.3334 9.33329C10.803 9.33329 10.2943 9.54401 9.9192 9.91908C9.54413 10.2942 9.33342 10.8029 9.33342 11.3333C9.33342 11.8637 9.54413 12.3724 9.9192 12.7475C10.2943 13.1226 10.803 13.3333 11.3334 13.3333C11.8638 13.3333 12.3726 13.1226 12.7476 12.7475C13.1227 12.3724 13.3334 11.8637 13.3334 11.3333C13.3334 10.8029 13.1227 10.2942 12.7476 9.91908C12.3726 9.54401 11.8638 9.33329 11.3334 9.33329ZM20.6667 9.33329C20.1363 9.33329 19.6276 9.54401 19.2525 9.91908C18.8775 10.2942 18.6667 10.8029 18.6667 11.3333C18.6667 11.8637 18.8775 12.3724 19.2525 12.7475C19.6276 13.1226 20.1363 13.3333 20.6667 13.3333C21.1972 13.3333 21.7059 13.1226 22.081 12.7475C22.456 12.3724 22.6667 11.8637 22.6667 11.3333C22.6667 10.8029 22.456 10.2942 22.081 9.91908C21.7059 9.54401 21.1972 9.33329 20.6667 9.33329Z" fill="#475467"/>
</svg>