<svg width="57" height="57" viewBox="0 0 57 57" fill="none" xmlns="http://www.w3.org/2000/svg">
<path d="M6.625 56.625C4.90625 56.625 3.4349 56.013 2.21094 54.7891C0.986979 53.5651 0.375 52.0937 0.375 50.375V6.625C0.375 4.90625 0.986979 3.4349 2.21094 2.21094C3.4349 0.986979 4.90625 0.375 6.625 0.375H31.625C33.3509 0.375 34.75 1.77411 34.75 3.5C34.75 5.22589 33.3509 6.625 31.625 6.625H6.625V50.375H50.375V25.375C50.375 23.6491 51.7741 22.25 53.5 22.25C55.2259 22.25 56.625 23.6491 56.625 25.375V50.375C56.625 52.0937 56.013 53.5651 54.7891 54.7891C53.5651 56.013 52.0937 56.625 50.375 56.625H6.625ZM47.25 19.125C45.5241 19.125 44.125 17.7259 44.125 16V12.875H41C39.2741 12.875 37.875 11.4759 37.875 9.75C37.875 8.02411 39.2741 6.625 41 6.625H44.125V3.5C44.125 1.77411 45.5241 0.375 47.25 0.375C48.9759 0.375 50.375 1.77411 50.375 3.5V6.625H53.5C55.2259 6.625 56.625 8.02411 56.625 9.75C56.625 11.4759 55.2259 12.875 53.5 12.875H50.375V16C50.375 17.7259 48.9759 19.125 47.25 19.125ZM9.75 44.125H47.25L35.5312 28.5L26.1562 41L19.125 31.625L9.75 44.125Z" fill="#98A2B3"/>
</svg>
