<svg xmlns="http://www.w3.org/2000/svg" width="32" height="32" viewBox="0 0 32 32" fill="none">
<g clip-path="url(#clip0_319_1644)">
<path d="M28 10.6667V25.3333C28 26.0406 27.719 26.7189 27.219 27.219C26.7189 27.719 26.0406 28 25.3333 28H6.66667C5.95942 28 5.28115 27.719 4.78105 27.219C4.28095 26.7189 4 26.0406 4 25.3333V10.6667H28ZM11.3333 20H10C9.66016 20.0004 9.33329 20.1305 9.08618 20.3638C8.83906 20.5971 8.69035 20.9159 8.67044 21.2552C8.65052 21.5944 8.7609 21.9285 8.97902 22.1891C9.19714 22.4497 9.50654 22.6172 9.844 22.6573L10 22.6667H11.3333C11.6732 22.6663 12 22.5362 12.2472 22.3029C12.4943 22.0696 12.643 21.7507 12.6629 21.4115C12.6828 21.0722 12.5724 20.7382 12.3543 20.4776C12.1362 20.217 11.8268 20.0495 11.4893 20.0093L11.3333 20ZM16.6667 20H15.3333C14.9797 20 14.6406 20.1405 14.3905 20.3905C14.1405 20.6406 14 20.9797 14 21.3333C14 21.687 14.1405 22.0261 14.3905 22.2761C14.6406 22.5262 14.9797 22.6667 15.3333 22.6667H16.6667C17.0203 22.6667 17.3594 22.5262 17.6095 22.2761C17.8595 22.0261 18 21.687 18 21.3333C18 20.9797 17.8595 20.6406 17.6095 20.3905C17.3594 20.1405 17.0203 20 16.6667 20ZM11.3333 14.6667H10C9.64638 14.6667 9.30724 14.8071 9.05719 15.0572C8.80714 15.3072 8.66667 15.6464 8.66667 16C8.66667 16.3536 8.80714 16.6928 9.05719 16.9428C9.30724 17.1929 9.64638 17.3333 10 17.3333H11.3333C11.687 17.3333 12.0261 17.1929 12.2761 16.9428C12.5262 16.6928 12.6667 16.3536 12.6667 16C12.6667 15.6464 12.5262 15.3072 12.2761 15.0572C12.0261 14.8071 11.687 14.6667 11.3333 14.6667ZM16.6667 14.6667H15.3333C14.9935 14.667 14.6666 14.7972 14.4195 15.0305C14.1724 15.2638 14.0237 15.5826 14.0038 15.9219C13.9839 16.2611 14.0942 16.5952 14.3124 16.8558C14.5305 17.1164 14.8399 17.2839 15.1773 17.324L15.3333 17.3333H16.6667C17.0065 17.333 17.3334 17.2028 17.5805 16.9695C17.8276 16.7362 17.9763 16.4174 17.9962 16.0781C18.0161 15.7389 17.9058 15.4048 17.6876 15.1442C17.4695 14.8836 17.1601 14.7161 16.8227 14.676L16.6667 14.6667ZM22 14.6667H20.6667C20.313 14.6667 19.9739 14.8071 19.7239 15.0572C19.4738 15.3072 19.3333 15.6464 19.3333 16C19.3333 16.3536 19.4738 16.6928 19.7239 16.9428C19.9739 17.1929 20.313 17.3333 20.6667 17.3333H22C22.3536 17.3333 22.6928 17.1929 22.9428 16.9428C23.1929 16.6928 23.3333 16.3536 23.3333 16C23.3333 15.6464 23.1929 15.3072 22.9428 15.0572C22.6928 14.8071 22.3536 14.6667 22 14.6667ZM25.3333 4C26.0406 4 26.7189 4.28095 27.219 4.78105C27.719 5.28115 28 5.95942 28 6.66667V8H4V6.66667C4 5.95942 4.28095 5.28115 4.78105 4.78105C5.28115 4.28095 5.95942 4 6.66667 4H25.3333Z" fill="#475467"/>
</g>
<defs>
<clipPath id="clip0_319_1644">
<rect width="32" height="32" fill="white"/>
</clipPath>
</defs>
</svg>