<svg width="24" height="24" viewBox="0 0 24 24" fill="none" xmlns="http://www.w3.org/2000/svg">
<path d="M24 6.66667V21.3333C24 22.0406 23.719 22.7189 23.219 23.219C22.7189 23.719 22.0406 24 21.3333 24H2.66667C1.95942 24 1.28115 23.719 0.781048 23.219C0.280951 22.7189 0 22.0406 0 21.3333V6.66667H24ZM7.33333 16H6C5.66016 16.0004 5.33329 16.1305 5.08618 16.3638C4.83906 16.5971 4.69035 16.9159 4.67044 17.2552C4.65052 17.5944 4.7609 17.9285 4.97902 18.1891C5.19714 18.4497 5.50654 18.6172 5.844 18.6573L6 18.6667H7.33333C7.67317 18.6663 8.00004 18.5362 8.24716 18.3029C8.49427 18.0696 8.64298 17.7507 8.6629 17.4115C8.68281 17.0722 8.57243 16.7382 8.35431 16.4776C8.13619 16.217 7.82679 16.0495 7.48933 16.0093L7.33333 16ZM12.6667 16H11.3333C10.9797 16 10.6406 16.1405 10.3905 16.3905C10.1405 16.6406 10 16.9797 10 17.3333C10 17.687 10.1405 18.0261 10.3905 18.2761C10.6406 18.5262 10.9797 18.6667 11.3333 18.6667H12.6667C13.0203 18.6667 13.3594 18.5262 13.6095 18.2761C13.8595 18.0261 14 17.687 14 17.3333C14 16.9797 13.8595 16.6406 13.6095 16.3905C13.3594 16.1405 13.0203 16 12.6667 16ZM7.33333 10.6667H6C5.64638 10.6667 5.30724 10.8071 5.05719 11.0572C4.80714 11.3072 4.66667 11.6464 4.66667 12C4.66667 12.3536 4.80714 12.6928 5.05719 12.9428C5.30724 13.1929 5.64638 13.3333 6 13.3333H7.33333C7.68696 13.3333 8.02609 13.1929 8.27614 12.9428C8.52619 12.6928 8.66667 12.3536 8.66667 12C8.66667 11.6464 8.52619 11.3072 8.27614 11.0572C8.02609 10.8071 7.68696 10.6667 7.33333 10.6667ZM12.6667 10.6667H11.3333C10.9935 10.667 10.6666 10.7972 10.4195 11.0305C10.1724 11.2638 10.0237 11.5826 10.0038 11.9219C9.98385 12.2611 10.0942 12.5952 10.3124 12.8558C10.5305 13.1164 10.8399 13.2839 11.1773 13.324L11.3333 13.3333H12.6667C13.0065 13.333 13.3334 13.2028 13.5805 12.9695C13.8276 12.7362 13.9763 12.4174 13.9962 12.0781C14.0161 11.7389 13.9058 11.4048 13.6876 11.1442C13.4695 10.8836 13.1601 10.7161 12.8227 10.676L12.6667 10.6667ZM18 10.6667H16.6667C16.313 10.6667 15.9739 10.8071 15.7239 11.0572C15.4738 11.3072 15.3333 11.6464 15.3333 12C15.3333 12.3536 15.4738 12.6928 15.7239 12.9428C15.9739 13.1929 16.313 13.3333 16.6667 13.3333H18C18.3536 13.3333 18.6928 13.1929 18.9428 12.9428C19.1929 12.6928 19.3333 12.3536 19.3333 12C19.3333 11.6464 19.1929 11.3072 18.9428 11.0572C18.6928 10.8071 18.3536 10.6667 18 10.6667ZM21.3333 0C22.0406 0 22.7189 0.280951 23.219 0.781048C23.719 1.28115 24 1.95942 24 2.66667V4H0V2.66667C0 1.95942 0.280951 1.28115 0.781048 0.781048C1.28115 0.280951 1.95942 0 2.66667 0H21.3333Z" fill="#475467"/>
</svg>
