<svg width="32" height="32" viewBox="0 0 32 32" fill="none" xmlns="http://www.w3.org/2000/svg">
<path d="M25.3333 4C26.0406 4 26.7189 4.28095 27.219 4.78105C27.719 5.28115 28 5.95942 28 6.66667V25.3333C28 26.0406 27.719 26.7189 27.219 27.219C26.7189 27.719 26.0406 28 25.3333 28H6.66667C5.95942 28 5.28115 27.719 4.78105 27.219C4.28095 26.7189 4 26.0406 4 25.3333V6.66667C4 5.95942 4.28095 5.28115 4.78105 4.78105C5.28115 4.28095 5.95942 4 6.66667 4H25.3333ZM25.3333 12H6.66667V25.3333H25.3333V12ZM11.3333 20C11.687 20 12.0261 20.1405 12.2761 20.3905C12.5262 20.6406 12.6667 20.9797 12.6667 21.3333C12.6667 21.687 12.5262 22.0261 12.2761 22.2761C12.0261 22.5262 11.687 22.6667 11.3333 22.6667H10C9.64638 22.6667 9.30724 22.5262 9.05719 22.2761C8.80714 22.0261 8.66667 21.687 8.66667 21.3333C8.66667 20.9797 8.80714 20.6406 9.05719 20.3905C9.30724 20.1405 9.64638 20 10 20H11.3333ZM16.6667 20C17.0065 20.0004 17.3334 20.1305 17.5805 20.3638C17.8276 20.5971 17.9763 20.9159 17.9962 21.2552C18.0161 21.5944 17.9058 21.9285 17.6876 22.1891C17.4695 22.4497 17.1601 22.6172 16.8227 22.6573L16.6667 22.6667H15.3333C14.9935 22.6663 14.6666 22.5362 14.4195 22.3029C14.1724 22.0696 14.0237 21.7507 14.0038 21.4115C13.9839 21.0722 14.0942 20.7382 14.3124 20.4776C14.5305 20.217 14.8399 20.0495 15.1773 20.0093L15.3333 20H16.6667ZM11.3333 14.6667C11.6732 14.667 12 14.7972 12.2472 15.0305C12.4943 15.2638 12.643 15.5826 12.6629 15.9219C12.6828 16.2611 12.5724 16.5952 12.3543 16.8558C12.1362 17.1164 11.8268 17.2839 11.4893 17.324L11.3333 17.3333H10C9.66016 17.333 9.33329 17.2028 9.08618 16.9695C8.83906 16.7362 8.69035 16.4174 8.67044 16.0781C8.65052 15.7389 8.7609 15.4048 8.97902 15.1442C9.19714 14.8836 9.50654 14.7161 9.844 14.676L10 14.6667H11.3333ZM16.6667 14.6667C17.0203 14.6667 17.3594 14.8071 17.6095 15.0572C17.8595 15.3072 18 15.6464 18 16C18 16.3536 17.8595 16.6928 17.6095 16.9428C17.3594 17.1929 17.0203 17.3333 16.6667 17.3333H15.3333C14.9797 17.3333 14.6406 17.1929 14.3905 16.9428C14.1405 16.6928 14 16.3536 14 16C14 15.6464 14.1405 15.3072 14.3905 15.0572C14.6406 14.8071 14.9797 14.6667 15.3333 14.6667H16.6667ZM22 14.6667C22.3398 14.667 22.6667 14.7972 22.9138 15.0305C23.1609 15.2638 23.3096 15.5826 23.3296 15.9219C23.3495 16.2611 23.2391 16.5952 23.021 16.8558C22.8029 17.1164 22.4935 17.2839 22.156 17.324L22 17.3333H20.6667C20.3268 17.333 20 17.2028 19.7528 16.9695C19.5057 16.7362 19.357 16.4174 19.3371 16.0781C19.3172 15.7389 19.4276 15.4048 19.6457 15.1442C19.8638 14.8836 20.1732 14.7161 20.5107 14.676L20.6667 14.6667H22ZM25.3333 6.66667H6.66667V9.33333H25.3333V6.66667Z" fill="#98A2B3"/>
</svg>
