<svg width="24" height="24" viewBox="0 0 24 24" fill="none" xmlns="http://www.w3.org/2000/svg">
<path d="M21.3333 0C22.0406 0 22.7189 0.280951 23.219 0.781048C23.719 1.28115 24 1.95942 24 2.66667V21.3333C24 22.0406 23.719 22.7189 23.219 23.219C22.7189 23.719 22.0406 24 21.3333 24H2.66667C1.95942 24 1.28115 23.719 0.781048 23.219C0.280951 22.7189 0 22.0406 0 21.3333V2.66667C0 1.95942 0.280951 1.28115 0.781048 0.781048C1.28115 0.280951 1.95942 0 2.66667 0H21.3333ZM21.3333 8H2.66667V21.3333H21.3333V8ZM7.33333 16C7.68696 16 8.02609 16.1405 8.27614 16.3905C8.52619 16.6406 8.66667 16.9797 8.66667 17.3333C8.66667 17.687 8.52619 18.0261 8.27614 18.2761C8.02609 18.5262 7.68696 18.6667 7.33333 18.6667H6C5.64638 18.6667 5.30724 18.5262 5.05719 18.2761C4.80714 18.0261 4.66667 17.687 4.66667 17.3333C4.66667 16.9797 4.80714 16.6406 5.05719 16.3905C5.30724 16.1405 5.64638 16 6 16H7.33333ZM12.6667 16C13.0065 16.0004 13.3334 16.1305 13.5805 16.3638C13.8276 16.5971 13.9763 16.9159 13.9962 17.2552C14.0161 17.5944 13.9058 17.9285 13.6876 18.1891C13.4695 18.4497 13.1601 18.6172 12.8227 18.6573L12.6667 18.6667H11.3333C10.9935 18.6663 10.6666 18.5362 10.4195 18.3029C10.1724 18.0696 10.0237 17.7507 10.0038 17.4115C9.98385 17.0722 10.0942 16.7382 10.3124 16.4776C10.5305 16.217 10.8399 16.0495 11.1773 16.0093L11.3333 16H12.6667ZM7.33333 10.6667C7.67317 10.667 8.00004 10.7972 8.24716 11.0305C8.49427 11.2638 8.64298 11.5826 8.6629 11.9219C8.68281 12.2611 8.57243 12.5952 8.35431 12.8558C8.13619 13.1164 7.82679 13.2839 7.48933 13.324L7.33333 13.3333H6C5.66016 13.333 5.33329 13.2028 5.08618 12.9695C4.83906 12.7362 4.69035 12.4174 4.67044 12.0781C4.65052 11.7389 4.7609 11.4048 4.97902 11.1442C5.19714 10.8836 5.50654 10.7161 5.844 10.676L6 10.6667H7.33333ZM12.6667 10.6667C13.0203 10.6667 13.3594 10.8071 13.6095 11.0572C13.8595 11.3072 14 11.6464 14 12C14 12.3536 13.8595 12.6928 13.6095 12.9428C13.3594 13.1929 13.0203 13.3333 12.6667 13.3333H11.3333C10.9797 13.3333 10.6406 13.1929 10.3905 12.9428C10.1405 12.6928 10 12.3536 10 12C10 11.6464 10.1405 11.3072 10.3905 11.0572C10.6406 10.8071 10.9797 10.6667 11.3333 10.6667H12.6667ZM18 10.6667C18.3398 10.667 18.6667 10.7972 18.9138 11.0305C19.1609 11.2638 19.3096 11.5826 19.3296 11.9219C19.3495 12.2611 19.2391 12.5952 19.021 12.8558C18.8029 13.1164 18.4935 13.2839 18.156 13.324L18 13.3333H16.6667C16.3268 13.333 16 13.2028 15.7528 12.9695C15.5057 12.7362 15.357 12.4174 15.3371 12.0781C15.3172 11.7389 15.4276 11.4048 15.6457 11.1442C15.8638 10.8836 16.1732 10.7161 16.5107 10.676L16.6667 10.6667H18ZM21.3333 2.66667H2.66667V5.33333H21.3333V2.66667Z" fill="#98A2B3"/>
</svg>
