<svg width="28" height="28" viewBox="0 0 28 28" fill="none" xmlns="http://www.w3.org/2000/svg">
<g clip-path="url(#clip0_130_3934)">
<path fill-rule="evenodd" clip-rule="evenodd" d="M15.8402 3.33941C16.2657 3.03085 16.8637 2.88702 17.4514 3.10393C18.7007 3.56558 19.861 4.24262 20.8806 5.10488C21.3602 5.51086 21.5361 6.10361 21.4832 6.62791C21.397 7.50137 21.5488 8.34466 21.9662 9.0708C22.3342 9.7169 22.8885 10.2273 23.5647 10.5869L23.8234 10.7145C24.2995 10.9314 24.7227 11.3826 24.8297 12.0055C25.0568 13.3257 25.0568 14.6756 24.8297 15.9958C24.7342 16.5572 24.3812 16.9783 23.9637 17.2149L23.8234 17.288C23.0299 17.6476 22.3813 18.2044 21.965 18.9305C21.5488 19.6578 21.397 20.5 21.4832 21.3734C21.535 21.8977 21.3602 22.4916 20.8806 22.8965C19.861 23.7587 18.7007 24.4357 17.4514 24.8974C17.1843 24.9937 16.898 25.0226 16.6174 24.9816C16.3367 24.9405 16.0703 24.8308 15.8414 24.6619C15.133 24.1504 14.3315 23.8604 13.5 23.8604C12.6686 23.8604 11.8671 24.1492 11.1598 24.6619C10.9308 24.831 10.6642 24.9408 10.3833 24.9819C10.1024 25.0229 9.81586 24.9939 9.54869 24.8974C8.29935 24.4358 7.13901 23.7587 6.11944 22.8965C5.90349 22.7114 5.7357 22.4759 5.63067 22.2104C5.52564 21.9449 5.48656 21.6576 5.51685 21.3734C5.60309 20.5 5.45015 19.6567 5.03385 18.9305C4.6547 18.2822 4.10022 17.7563 3.43538 17.4144L3.17663 17.2868C2.91713 17.1709 2.68974 16.9926 2.51433 16.7676C2.33892 16.5425 2.22084 16.2775 2.1704 15.9958C1.9432 14.6756 1.9432 13.3257 2.1704 12.0055C2.26585 11.4441 2.61889 11.023 3.03633 10.7864L3.17663 10.7145C3.97012 10.3537 4.61871 9.7981 5.035 9.0708C5.45015 8.34466 5.60309 7.50137 5.51685 6.62791C5.48656 6.34373 5.52564 6.05639 5.63067 5.79093C5.7357 5.52546 5.90349 5.28994 6.11944 5.10488C7.13902 4.24262 8.29935 3.56558 9.54869 3.10393C9.81572 3.00769 10.102 2.97884 10.3827 3.01988C10.6633 3.06093 10.9297 3.17063 11.1587 3.33941C11.8659 3.85211 12.6674 4.14094 13.5 4.14094C14.3326 4.14094 15.133 3.85211 15.8402 3.33941ZM16.9408 5.39139C15.9449 6.05257 14.7708 6.46088 13.5 6.46088C12.2293 6.46088 11.0552 6.05141 10.0593 5.39139C9.2587 5.71734 8.50766 6.15548 7.82831 6.69287C7.89731 7.89112 7.66156 9.12068 7.02677 10.2308C6.39083 11.3397 5.4536 12.1598 4.38986 12.6992C4.27002 13.5618 4.27002 14.4372 4.38986 15.2998C5.4536 15.8392 6.39083 16.6593 7.02677 17.7706C7.66156 18.8783 7.89731 20.1079 7.82831 21.3061C8.50759 21.8439 9.25863 22.2825 10.0593 22.6088C11.0552 21.9476 12.2293 21.5393 13.5 21.5393C14.7708 21.5393 15.9449 21.9488 16.9408 22.6088C17.7413 22.2828 18.4924 21.8446 19.1717 21.3073C19.1027 20.1079 19.3385 18.8783 19.9733 17.7694C20.6081 16.6593 21.5465 15.8392 22.6102 15.2987C22.73 14.4368 22.73 13.5622 22.6102 12.7003C21.5465 12.1598 20.6092 11.3397 19.9733 10.2296C19.3385 9.12068 19.1027 7.89112 19.1717 6.69171C18.4924 6.15432 17.7414 5.71734 16.9408 5.39139ZM13.5 9.36079C14.72 9.36079 15.89 9.84964 16.7527 10.7198C17.6153 11.5899 18.1 12.7701 18.1 14.0007C18.1 15.2312 17.6153 16.4114 16.7527 17.2815C15.89 18.1517 14.72 18.6405 13.5 18.6405C12.28 18.6405 11.11 18.1517 10.2474 17.2815C9.38473 16.4114 8.90009 15.2312 8.90009 14.0007C8.90009 12.7701 9.38473 11.5899 10.2474 10.7198C11.11 9.84964 12.28 9.36079 13.5 9.36079ZM13.5 11.6807C12.89 11.6807 12.305 11.9251 11.8737 12.3602C11.4424 12.7953 11.2001 13.3854 11.2001 14.0007C11.2001 14.6159 11.4424 15.206 11.8737 15.6411C12.305 16.0762 12.89 16.3206 13.5 16.3206C14.11 16.3206 14.695 16.0762 15.1263 15.6411C15.5577 15.206 15.8 14.6159 15.8 14.0007C15.8 13.3854 15.5577 12.7953 15.1263 12.3602C14.695 11.9251 14.11 11.6807 13.5 11.6807Z" fill="#111111"/>
</g>
<defs>
<clipPath id="clip0_130_3934">
<rect width="28" height="28" fill="white"/>
</clipPath>
</defs>
</svg>
